<svg aria-hidden="true" xmlns="http://www.w3.org/2000/svg" xmlns:xlink="http://www.w3.org/1999/xlink"><symbol viewBox="0 0 24 24" id="arrow-down" xmlns="http://www.w3.org/2000/svg">
<path fill-rule="evenodd" clip-rule="evenodd" d="M12 13.9393L17.4697 8.46967L18.5303 9.53033L12 16.0607L5.46967 9.53033L6.53033 8.46967L12 13.9393Z"/>
</symbol><symbol viewBox="0 0 12 12" id="cross" xmlns="http://www.w3.org/2000/svg">
<path fill-rule="evenodd" clip-rule="evenodd" d="M5.24996 6.75V12H6.74996V6.75H12V5.25L6.74996 5.25V0H5.24996V5.25L0 5.25V6.75H5.24996Z"/>
</symbol><symbol viewBox="0 0 24 24" id="delete" xmlns="http://www.w3.org/2000/svg">
<path fill-rule="evenodd" clip-rule="evenodd" d="M9 4.5V6H6V7.5H18V6H15V4.5H9ZM6.75 8.25H8.25V17.6893L8.56066 18H15.4393L15.75 17.6893V8.25H17.25V18.3107L16.0607 19.5H7.93934L6.75 18.3107V8.25Z"/>
</symbol><symbol viewBox="0 0 24 24" id="dots" xmlns="http://www.w3.org/2000/svg">
<circle cx="12" cy="6" r="1.5"/>
<circle cx="12" cy="12" r="1.5"/>
<circle cx="12" cy="18" r="1.5"/>
</symbol><symbol viewBox="0 0 24 24" id="file" xmlns="http://www.w3.org/2000/svg">
<path fill-rule="evenodd" clip-rule="evenodd" d="M16.0607 3H5.25V21H18.75V5.68934L16.0607 3ZM6.75 19.5V4.5H15.4393L17.25 6.31066V19.5H6.75ZM8.25 9.75H15.75V8.25H8.25V9.75ZM8.25 12.75H15.75V11.25H8.25V12.75ZM12 15.75H8.25V14.25H12V15.75Z"/>
</symbol><symbol viewBox="0 0 20 18" id="home" xmlns="http://www.w3.org/2000/svg">
<path fill-rule="evenodd" clip-rule="evenodd" d="M10 0.1875L19.4501 7.275L19.0001 8.625H18.25V17.25H1.75005V8.625H1.00005L0.550049 7.275L10 0.1875ZM3.25005 7.125V15.75H16.75V7.125L10 2.0625L3.25005 7.125Z"/>
</symbol><symbol viewBox="0 0 24 25" id="left" xmlns="http://www.w3.org/2000/svg">
<path fill-rule="evenodd" clip-rule="evenodd" d="M6.3508 13.2499L11.2096 17.9615L10.1654 19.0383L3.42264 12.4999L10.1654 5.96148L11.2096 7.03833L6.3508 11.7499L21 11.7499L21 13.2499L6.3508 13.2499Z"/>
</symbol><symbol viewBox="0 0 13 5" id="nav-polygon" xmlns="http://www.w3.org/2000/svg">
<path d="M4.82572 1.66345C5.34189 0.701409 7.65812 0.701405 8.17429 1.66344C9.11645 3.41947 10.4944 5 12.4025 5C16.6951 5 -3.69516 5 0.59754 5C2.50558 5 3.88356 3.41947 4.82572 1.66345Z"/>
</symbol><symbol viewBox="0 0 24 24" id="next-arrow" xmlns="http://www.w3.org/2000/svg">
<path fill-rule="evenodd" clip-rule="evenodd" d="M17.6492 11.2501L12.7904 6.53852L13.8346 5.46167L20.5774 12.0001L13.8346 18.5385L12.7904 17.4617L17.6492 12.7501H3V11.2501H17.6492Z"/>
</symbol><symbol viewBox="0 0 24 24" id="people" xmlns="http://www.w3.org/2000/svg">
<path fill-rule="evenodd" clip-rule="evenodd" d="M3 18C3 15.3945 4.66081 13.1768 6.98156 12.348C7.61232 12.1227 8.29183 12 9 12C9.70817 12 10.3877 12.1227 11.0184 12.348C11.3611 12.4703 11.6893 12.623 12 12.8027C12.3107 12.623 12.6389 12.4703 12.9816 12.348C13.6123 12.1227 14.2918 12 15 12C15.7082 12 16.3877 12.1227 17.0184 12.348C19.3392 13.1768 21 15.3945 21 18V21H15.75V19.5H19.5V18C19.5 15.5147 17.4853 13.5 15 13.5C14.4029 13.5 13.833 13.6163 13.3116 13.8275C14.3568 14.9073 15 16.3785 15 18V21H3V18ZM9 11.25C8.31104 11.25 7.66548 11.0642 7.11068 10.74C5.9977 10.0896 5.25 8.88211 5.25 7.5C5.25 5.42893 6.92893 3.75 9 3.75C10.2267 3.75 11.3158 4.33901 12 5.24963C12.6842 4.33901 13.7733 3.75 15 3.75C17.0711 3.75 18.75 5.42893 18.75 7.5C18.75 8.88211 18.0023 10.0896 16.8893 10.74C16.3345 11.0642 15.689 11.25 15 11.25C14.311 11.25 13.6655 11.0642 13.1107 10.74C12.6776 10.4869 12.2999 10.1495 12 9.75036C11.7001 10.1496 11.3224 10.4869 10.8893 10.74C10.3345 11.0642 9.68896 11.25 9 11.25ZM13.5 18V19.5H4.5V18C4.5 15.5147 6.51472 13.5 9 13.5C11.4853 13.5 13.5 15.5147 13.5 18ZM11.25 7.5C11.25 8.74264 10.2426 9.75 9 9.75C7.75736 9.75 6.75 8.74264 6.75 7.5C6.75 6.25736 7.75736 5.25 9 5.25C10.2426 5.25 11.25 6.25736 11.25 7.5ZM15 5.25C13.7574 5.25 12.75 6.25736 12.75 7.5C12.75 8.74264 13.7574 9.75 15 9.75C16.2426 9.75 17.25 8.74264 17.25 7.5C17.25 6.25736 16.2426 5.25 15 5.25Z"/>
</symbol><symbol viewBox="0 0 24 25" id="refresh" xmlns="http://www.w3.org/2000/svg">
<path fill-rule="evenodd" clip-rule="evenodd" d="M6.00003 12.5C6.00003 9.17198 8.64024 6.5 11.8655 6.5C14.03 6.5 15.9294 7.70124 16.9464 9.5L15 9.5L15 11L19.5 11L19.5 6.5L18 6.5L18 8.34807C16.6827 6.33414 14.4311 5 11.8655 5C7.78348 5 4.50003 8.37217 4.50003 12.5L6.00003 12.5Z"/>
<path fill-rule="evenodd" clip-rule="evenodd" d="M18 12.5C18 15.828 15.3598 18.5 12.1346 18.5C9.97007 18.5 8.0706 17.2988 7.05359 15.5L9.00003 15.5L9.00003 14L4.50003 14L4.50003 18.5L6.00003 18.5L6.00003 16.6519C7.31734 18.6659 9.56889 20 12.1346 20C16.2165 20 19.5 16.6278 19.5 12.5L18 12.5Z"/>
</symbol><symbol viewBox="0 0 24 24" id="settings" xmlns="http://www.w3.org/2000/svg">
<path fill-rule="evenodd" clip-rule="evenodd" d="M10.65 3L9.93163 3.53449L9.32754 5.54812L7.47651 4.55141L6.5906 4.68143L4.68141 6.59062L4.55139 7.47652L5.5481 9.32755L3.53449 9.93163L3 10.65V13.35L3.53449 14.0684L5.54811 14.6725L4.55142 16.5235L4.68144 17.4094L6.59063 19.3186L7.47653 19.4486L9.32754 18.4519L9.93163 20.4655L10.65 21H13.35L14.0684 20.4655L14.6725 18.4519L16.5235 19.4486L17.4094 19.3185L19.3186 17.4094L19.4486 16.5235L18.4519 14.6724L20.4655 14.0684L21 13.35V10.65L20.4655 9.93163L18.4519 9.32754L19.4486 7.47654L19.3186 6.59063L17.4094 4.68144L16.5235 4.55142L14.6725 5.54812L14.0684 3.53449L13.35 3H10.65ZM10.4692 6.96284L11.208 4.5H12.792L13.5308 6.96284L13.8753 7.0946C13.9654 7.12908 14.0543 7.16597 14.142 7.2052L14.4789 7.35598L16.7433 6.13668L17.8633 7.25671L16.644 9.52111L16.7948 9.85803C16.834 9.9457 16.8709 10.0346 16.9054 10.1247L17.0372 10.4692L19.5 11.208V12.792L17.0372 13.5308L16.9054 13.8753C16.8709 13.9654 16.834 14.0543 16.7948 14.1419L16.644 14.4789L17.8633 16.7433L16.7433 17.8633L14.4789 16.644L14.142 16.7948C14.0543 16.834 13.9654 16.8709 13.8753 16.9054L13.5308 17.0372L12.792 19.5H11.208L10.4692 17.0372L10.1247 16.9054C10.0346 16.8709 9.94569 16.834 9.85803 16.7948L9.52111 16.644L7.25671 17.8633L6.13668 16.7433L7.35597 14.4789L7.2052 14.142C7.16597 14.0543 7.12908 13.9654 7.0946 13.8753L6.96284 13.5308L4.5 12.792L4.5 11.208L6.96284 10.4692L7.0946 10.1247C7.12907 10.0346 7.16596 9.94571 7.20519 9.85805L7.35596 9.52113L6.13666 7.2567L7.25668 6.13667L9.5211 7.35598L9.85803 7.2052C9.9457 7.16597 10.0346 7.12908 10.1247 7.0946L10.4692 6.96284ZM14.25 12C14.25 13.2426 13.2426 14.25 12 14.25C10.7574 14.25 9.75 13.2426 9.75 12C9.75 10.7574 10.7574 9.75 12 9.75C13.2426 9.75 14.25 10.7574 14.25 12ZM15.75 12C15.75 14.0711 14.0711 15.75 12 15.75C9.92893 15.75 8.25 14.0711 8.25 12C8.25 9.92893 9.92893 8.25 12 8.25C14.0711 8.25 15.75 9.92893 15.75 12Z"/>
</symbol><symbol viewBox="0 0 24 24" id="suitcase" xmlns="http://www.w3.org/2000/svg">
<path fill-rule="evenodd" clip-rule="evenodd" d="M9 4.5L8.25 5.25V7.5H4.5L3.75 8.25V18.75L4.5 19.5H19.5L20.25 18.75V8.25L19.5 7.5H15.75V5.25L15 4.5H9ZM14.25 7.5V6H9.75V7.5H14.25ZM9.75 9H14.25V18H9.75V9ZM8.25 9H5.25V18H8.25V9ZM15.75 18V9H18.75V18H15.75Z"/>
</symbol></svg>