<svg width="105" height="80" viewBox="0 0 105 80" fill="none" xmlns="http://www.w3.org/2000/svg">
<path d="M88.2277 79.9767L20.9207 80C17.5394 80.0012 14.5105 78.2524 12.8188 75.3222C11.9729 73.8568 11.5498 72.2495 11.5493 70.6417C11.5487 69.0342 11.9709 67.4263 12.8156 65.9606L46.4477 4.68347C48.1375 1.75187 51.1652 0.0011708 54.5466 5.86977e-07C57.9279 -0.00116962 60.9568 1.74744 62.6487 4.67786L96.3274 65.9393C97.1711 67.4007 97.5932 69.0063 97.5933 70.613C97.5932 72.2197 97.1713 73.8273 96.3263 75.2932C94.6367 78.2246 91.609 79.9755 88.2277 79.9767ZM12.3953 70.6406C12.3952 72.1039 19.8223 68.9507 20.5917 70.2836C22.1308 72.9494 17.8441 79.1562 20.9204 79.1551C20.9204 79.1551 94.0579 77.5379 95.5952 74.871C96.3637 73.5376 96.7478 72.0747 96.7472 70.6122C96.7467 69.1497 96.3616 67.6873 95.592 66.3544L61.9132 5.09294C60.3785 2.43475 57.6231 0.843852 54.5468 0.844917C51.472 0.845981 12.3954 69.1771 12.3953 70.6406Z" fill="#3F3D56"/>
<path d="M74.1866 66.4629C91.2044 66.4629 105 52.6557 105 35.6235C105 18.5913 91.2044 4.78406 74.1866 4.78406C57.1689 4.78406 43.3733 18.5913 43.3733 35.6235C43.3733 52.6557 57.1689 66.4629 74.1866 66.4629Z" fill="#E86C62"/>
<path d="M74.1921 54.5284C75.7546 54.5284 77.0213 53.2607 77.0213 51.6968C77.0213 50.133 75.7546 48.8652 74.1921 48.8652C72.6296 48.8652 71.3629 50.133 71.3629 51.6968C71.3629 53.2607 72.6296 54.5284 74.1921 54.5284Z" fill="white"/>
<path d="M74.18 16.7184C73.9201 18.4468 74.3858 18.8084 74.3884 26.2597C74.3909 33.7109 75.9357 43.7012 74.1894 43.7018C72.443 43.7024 71.8043 23.0846 65.7402 21.2599C58.6106 19.1144 75.0213 11.1234 74.18 16.7184Z" fill="white"/>
<path d="M32.8307 51.3688L30.0468 57.2559C33.4123 54.8405 38.6691 52.7584 42.8523 51.6432C38.9546 49.7589 34.1852 46.7208 31.3359 43.7129L32.9371 49.9333C14.1646 46.1065 0.683803 31.693 0.678096 15.1822L0 14.9487C0.00596006 32.1947 13.3003 47.4616 32.8307 51.3688Z" fill="#3F3D56"/>
</svg>
