<svg width="24" height="24" viewBox="0 0 24 24" fill="none" xmlns="http://www.w3.org/2000/svg">
<path fill-rule="evenodd" clip-rule="evenodd" d="M18.5837 5.41639C18.1592 4.9919 17.6263 5.04795 17.3863 5.28802L13.5703 9.104L7.61668 7.89813L7.46932 8.04549L12.2107 10.4635L7.75852 14.9158L4.80697 14.2876L4.57689 14.5177L7.50724 16.4929L9.48244 19.4232L9.71253 19.1931L9.08434 16.2416L13.5366 11.7894L15.9546 16.5308L16.102 16.3834L14.8961 10.4298L18.7121 6.61384C18.9522 6.37377 19.0082 5.84088 18.5837 5.41639ZM16.3256 4.22736C17.2617 3.29121 18.7508 3.4622 19.6444 4.35573C20.5379 5.24926 20.7089 6.73835 19.7727 7.6745L16.5261 10.9212L17.7319 16.8748L15.556 19.0507L13.1379 14.3093L10.7211 16.7262L11.3493 19.6777L9.256 21.771L6.42666 17.5734L2.22913 14.7441L4.32239 12.6508L7.27393 13.279L9.69075 10.8622L4.94935 8.44414L7.12534 6.26815L13.0789 7.47402L16.3256 4.22736Z" fill="#E86C62"/>
</svg>
