<svg width="24" height="24" viewBox="0 0 24 24" fill="none" xmlns="http://www.w3.org/2000/svg">
<path fill-rule="evenodd" clip-rule="evenodd" d="M5.68387 9.10852C4.91592 11.8505 5.2422 15.3057 6.07834 17.9623L4.64753 18.4127C3.75262 15.5693 3.37076 11.8057 4.23945 8.70398C4.67658 7.14317 5.44266 5.70877 6.66299 4.66294C7.89347 3.60841 9.5268 3 11.5947 3C12.774 3 14.3732 3.31478 16.1632 4.4996L15.3352 5.7504C13.8016 4.73522 12.4927 4.5 11.5947 4.5C9.83859 4.5 8.56455 5.00878 7.63909 5.8019C6.70348 6.60373 6.06506 7.74745 5.68387 9.10852ZM17.6242 10.9248C17.5867 9.24047 17.5585 7.97426 16.6049 7.02479L17.6632 5.96181C19.054 7.34653 19.0902 9.18617 19.1197 10.6847C19.1212 10.7641 19.1228 10.8426 19.1245 10.9199C19.1613 12.568 19.261 13.8481 20.3668 14.8088L19.3831 15.9412C17.7193 14.4957 17.6603 12.5414 17.6249 10.9534L17.6242 10.9248ZM11.5947 7.9375C10.0918 7.9375 8.88263 9.14577 8.88263 10.625H7.38263C7.38263 8.30728 9.2735 6.4375 11.5947 6.4375C13.916 6.4375 15.8068 8.30727 15.8068 10.625C15.8068 11.5439 15.9392 13.0207 16.3327 14.4178C16.7359 15.8495 17.3627 17.017 18.222 17.5502L17.431 18.8248C16.0745 17.983 15.3166 16.3433 14.8888 14.8244C14.4514 13.271 14.3068 11.654 14.3068 10.625C14.3068 9.14577 13.0976 7.9375 11.5947 7.9375ZM11.2689 15.3401C10.8583 13.465 10.7847 11.678 10.8459 10.5831L12.3436 10.6669C12.2895 11.6345 12.3544 13.285 12.7342 15.0192C13.1159 16.7621 13.7981 18.5085 14.9201 19.7463L13.8088 20.7537C12.4381 19.2415 11.6777 17.2066 11.2689 15.3401ZM7.38263 12.0016V12H8.88263C8.88263 12.4489 8.88294 13.7749 9.13265 15.3177C9.38499 16.8766 9.87869 18.5672 10.8083 19.7979L9.61143 20.7021C8.46383 19.1828 7.9189 17.2067 7.65192 15.5573C7.38263 13.8936 7.38263 12.471 7.38263 12.0016Z" fill="#E86C62"/>
</svg>
