<svg width="341" height="233" viewBox="0 0 341 233" fill="none" xmlns="http://www.w3.org/2000/svg">
<path d="M335.747 7.64266e-09H5.24771C3.98887 0.00114399 2.78191 0.500783 1.89179 1.38922C1.00166 2.27765 0.501106 3.48228 0.5 4.73869V228.261C0.501104 229.518 1.00166 230.722 1.89179 231.611C2.78191 232.499 3.98887 232.999 5.24771 233H335.747C336.433 233 337.111 232.851 337.735 232.564C338.358 232.277 338.911 231.858 339.357 231.337C339.394 231.296 339.429 231.253 339.46 231.207C339.744 230.861 339.973 230.474 340.141 230.06C340.38 229.49 340.502 228.879 340.5 228.261V4.73872C340.499 3.48142 339.997 2.27608 339.106 1.38754C338.215 0.499001 337.006 -7.1311e-05 335.747 7.64266e-09ZM339.144 228.261C339.145 228.922 338.95 229.569 338.583 230.12C338.258 230.605 337.816 231.001 337.298 231.272C336.819 231.519 336.287 231.648 335.747 231.647H5.24771C4.3484 231.646 3.48623 231.289 2.85033 230.654C2.21442 230.019 1.85669 229.159 1.8556 228.261V4.73872C1.85668 3.84115 2.21442 2.98064 2.85033 2.34595C3.48623 1.71127 4.3484 1.35422 5.24771 1.35313H335.747C336.647 1.35301 337.51 1.70951 338.147 2.34429C338.784 2.97908 339.143 3.84027 339.144 4.73872V228.261Z" fill="#251868"/>
<path d="M340.5 20H1.5V21H340.5V20Z" fill="#251868"/>
<path d="M12.5 14C14.7091 14 16.5 12.2091 16.5 10C16.5 7.79086 14.7091 6 12.5 6C10.2909 6 8.5 7.79086 8.5 10C8.5 12.2091 10.2909 14 12.5 14Z" fill="#251868"/>
<path d="M24.5 14C26.7091 14 28.5 12.2091 28.5 10C28.5 7.79086 26.7091 6 24.5 6C22.2909 6 20.5 7.79086 20.5 10C20.5 12.2091 22.2909 14 24.5 14Z" fill="#251868"/>
<path d="M36.5 14C38.7091 14 40.5 12.2091 40.5 10C40.5 7.79086 38.7091 6 36.5 6C34.2909 6 32.5 7.79086 32.5 10C32.5 12.2091 34.2909 14 36.5 14Z" fill="#251868"/>
<path d="M151.743 132.867C147.753 130.351 145.769 124.504 146.746 119.156C147.724 113.809 151.406 109.203 155.819 107.216C157.966 106.279 160.32 105.873 162.669 106.035C165.018 106.196 167.288 106.921 169.277 108.143C173.324 110.541 179.048 111.854 180.97 116.651C182.447 120.337 180.574 127.822 178.586 131.402C176.868 134.497 173.603 135.912 170.535 136.527C167.142 137.198 163.639 137.154 160.265 136.4C156.89 135.646 153.722 134.198 150.974 132.155L151.743 132.867Z" fill="#2F2E41"/>
<path d="M150.5 164.629L146.989 169.434L146.525 170.068L145.85 171H135.5L136.199 170.068L138.007 167.649L142.222 162L146.995 163.515L150.5 164.629Z" fill="#FFB8B8"/>
<path d="M135.461 171L133.717 169.876L133.5 169.736L144.446 149.038C144.917 148.142 145.554 147.352 146.321 146.713C147.088 146.075 147.97 145.6 148.915 145.317C150.108 144.949 151.371 144.9 152.587 145.177C153.296 145.332 153.979 145.597 154.613 145.964C154.873 146.112 155.125 146.277 155.366 146.458C156.291 147.132 157.052 148.021 157.586 149.055C158.222 150.265 158.537 151.629 158.497 153.006C158.457 154.384 158.064 155.726 157.359 156.894L153.139 163.891L149.532 169.876L148.855 171H135.461Z" fill="#2F2E41"/>
<path d="M163.5 141C170.68 141 176.5 135.18 176.5 128C176.5 120.82 170.68 115 163.5 115C156.32 115 150.5 120.82 150.5 128C150.5 135.18 156.32 141 163.5 141Z" fill="#FFB8B8"/>
<path d="M176.5 171H147.112L147.245 170.611C147.171 170.375 147.102 170.139 147.038 169.904C146.969 169.657 146.91 169.405 146.857 169.158C146.379 166.864 146.381 164.491 146.862 162.197C148.486 153.986 154.964 147.315 154.964 147.315C155.075 147.227 155.187 147.145 155.299 147.063C156.263 146.336 157.308 145.732 158.413 145.265C163.225 143.209 168.271 144.037 171.661 145.1C172.842 145.468 173.997 145.92 175.116 146.454C175.51 146.646 175.723 146.767 175.723 146.767L176.058 157.296L176.463 169.904L176.5 171Z" fill="#E86C62"/>
<path d="M190.283 169.917L187.994 158.297L185.684 146.58C185.587 146.096 185.347 145.652 184.993 145.307C184.64 144.962 184.19 144.732 183.704 144.646L178.866 143.813L174.364 143.038C173.93 142.96 173.482 143.002 173.07 143.16C172.658 143.317 172.297 143.584 172.026 143.932C171.688 144.353 171.502 144.876 171.5 145.415C171.5 145.749 171.568 146.079 171.701 146.385C174.049 151.853 174.093 160.512 173.496 169.917C173.469 170.274 173.447 170.637 173.42 171H190.5L190.283 169.917Z" fill="#2F2E41"/>
<path d="M158.434 145.833C158.333 145.443 158.134 145.083 157.854 144.787C157.574 144.49 157.223 144.266 156.832 144.134C156.441 144.002 156.023 143.967 155.614 144.031C155.206 144.096 154.82 144.258 154.492 144.503L152.38 146.369L143.734 154.024C143.465 154.259 143.254 154.55 143.117 154.876C142.141 157.143 140.239 161.619 138.027 167.146C137.669 168.046 137.3 168.974 136.919 169.928C136.787 170.282 136.644 170.641 136.5 171H150.748C150.864 170.641 150.98 170.282 151.095 169.928C151.729 167.982 152.347 166.074 152.943 164.219C154.685 158.832 156.256 153.938 157.469 150.068C157.806 148.995 158.113 148.006 158.39 147.098C158.52 146.687 158.535 146.251 158.434 145.833Z" fill="#2F2E41"/>
<path d="M193.566 171H194.5L194.371 170.701L194.03 169.931L188.769 158L187.964 158.465L181.5 162.2L184.816 169.931L185.274 171H190.547H193.566Z" fill="#FFB8B8"/>
<path d="M188.15 148.712C187.452 146.946 186.076 145.508 184.308 144.701C182.541 143.894 180.519 143.779 178.666 144.381C178.429 144.457 178.197 144.545 177.97 144.646C176.672 145.206 175.566 146.113 174.781 147.26C174.461 147.718 174.198 148.211 173.998 148.728C173.642 149.627 173.474 150.585 173.503 151.547C173.532 152.508 173.758 153.455 174.168 154.332L175.751 157.746L181.416 169.94L181.909 171H193.377L194.166 170.703L196.215 169.94L196.5 169.834L188.15 148.712Z" fill="#2F2E41"/>
<path d="M173.698 112.905C174.142 113.048 174.618 113.029 175.051 112.853C175.485 112.676 175.852 112.351 176.096 111.927C176.327 111.496 176.463 111.013 176.493 110.516C176.524 110.02 176.448 109.522 176.272 109.062C175.91 108.143 175.34 107.335 174.614 106.713C173.789 105.912 172.785 105.354 171.699 105.093C171.157 104.968 170.596 104.969 170.054 105.097C169.512 105.225 169.002 105.476 168.559 105.834C168.124 106.204 167.801 106.705 167.632 107.273C167.463 107.841 167.456 108.45 167.612 109.023C167.942 110.05 168.835 110.739 169.728 111.252C171.499 112.267 173.451 112.863 175.455 113L173.698 112.905Z" fill="#2F2E41"/>
<path d="M176.08 126.928C173.945 127.197 174.219 126.202 173.364 124.39C172.509 122.578 171.364 120.427 169.218 120.243C167.46 120.093 166.011 121.38 164.586 122.337C162.047 124.041 158.625 124.875 155.682 123.853C152.738 122.83 150.693 119.617 151.81 116.921C152.157 116.177 152.668 115.506 153.31 114.949C153.953 114.393 154.713 113.964 155.544 113.688C157.211 113.145 158.981 112.919 160.747 113.026C164.673 113.141 168.524 114.043 172.027 115.671C174.445 116.796 176.799 118.406 177.717 120.744C178.634 123.082 179.238 126.368 176.615 127L176.08 126.928Z" fill="#2F2E41"/>
<path d="M172.532 105.62C171.489 103.808 172.35 101.322 174.057 100.111C175.763 98.9 178.052 98.7813 180.089 99.2669C182.103 99.7733 183.948 100.799 185.439 102.242C186.93 103.685 188.015 105.494 188.585 107.487C189.45 110.657 188.936 114.06 189.668 117.263C190.058 118.97 190.794 120.579 191.83 121.991C192.867 123.403 194.182 124.589 195.695 125.475C197.208 126.36 198.887 126.928 200.628 127.141C202.369 127.355 204.135 127.211 205.818 126.717C208.01 126.075 210.237 124.513 210.453 122.243C210.68 124.85 210.084 127.462 208.75 129.715C207.415 131.967 205.408 133.746 203.01 134.804C200.186 135.98 197.036 136.056 193.977 135.978C191.983 135.927 189.944 135.807 188.105 135.037C186.833 134.458 185.689 133.631 184.741 132.605C183.792 131.579 183.059 130.374 182.583 129.061C181.647 126.422 181.394 123.59 181.848 120.828C182.149 118.679 182.748 116.573 182.915 114.41C183.083 112.247 182.765 109.937 181.429 108.225C180.093 106.514 177.541 105.64 175.642 106.695C174.878 107.118 174.262 107.811 173.433 108.084C172.603 108.358 171.428 107.877 171.503 107.009L172.532 105.62Z" fill="#2F2E41"/>
<path d="M263.5 171L263.601 169.91L266.614 137.943C267.601 137.154 268.662 136.466 269.781 135.889C275.982 132.702 281.964 134.227 285.2 135.546C286.058 135.888 286.887 136.302 287.679 136.782L289.441 169.91L289.5 171H263.5Z" fill="#E86C62"/>
<path d="M277.5 130C284.68 130 290.5 123.956 290.5 116.5C290.5 109.044 284.68 103 277.5 103C270.32 103 264.5 109.044 264.5 116.5C264.5 123.956 270.32 130 277.5 130Z" fill="#FFB8B8"/>
<path d="M288.744 125C289.714 123.936 290.358 122.596 290.594 121.151C290.83 119.705 290.647 118.219 290.069 116.882C289.491 115.544 288.545 114.416 287.349 113.64C286.153 112.865 284.763 112.477 283.355 112.526C281.551 112.588 279.851 113.357 278.129 113.921C275.519 114.845 272.735 115.105 270.009 114.682C267.267 114.239 264.792 112.718 263.095 110.433C261.481 108.124 260.977 104.921 262.118 102.324C263.434 99.3258 266.509 97.6737 269.402 96.3313C270.569 95.7235 271.815 95.2974 273.101 95.0667C273.745 94.9554 274.404 94.9836 275.037 95.1497C275.67 95.3158 276.264 95.6162 276.78 96.032C277.593 96.7597 278.07 97.8535 278.954 98.4841C279.95 99.194 281.244 99.1754 282.445 99.3005C285.15 99.5823 287.709 100.715 289.781 102.547C291.853 104.379 293.339 106.824 294.043 109.557C294.747 112.291 294.635 115.182 293.722 117.847C292.808 120.512 291.137 122.825 288.93 124.477L288.744 125Z" fill="#2F2E41"/>
<path d="M271.088 141.598L269.218 136.096L269.101 135.753C269.046 135.59 268.956 135.443 268.84 135.323C268.723 135.202 268.581 135.111 268.426 135.057C268.271 135.003 268.107 134.987 267.945 135.01C267.784 135.034 267.629 135.096 267.493 135.191L265.37 136.692C265.37 136.692 251.75 136.692 250.656 145.351C250.641 145.487 250.621 145.638 250.606 145.801C250.605 145.808 250.603 145.815 250.6 145.822C250.462 146.391 247.892 156.919 245.684 169.917C245.623 170.274 245.561 170.637 245.5 171H275.095C276.058 157.943 275.52 145.804 271.088 141.598Z" fill="#2F2E41"/>
<path d="M309.363 169.917C307.634 156.583 305.16 145.8 305.16 145.8C305.138 145.638 305.116 145.486 305.1 145.351C303.934 136.691 289.349 136.691 289.349 136.691L287.076 135.191C286.93 135.095 286.765 135.034 286.592 135.01C286.418 134.987 286.242 135.003 286.076 135.057C285.91 135.112 285.759 135.202 285.633 135.323C285.508 135.444 285.412 135.591 285.353 135.754L283.224 141.598C278.479 145.803 277.902 157.943 278.933 171L309.5 171C309.456 170.637 309.407 170.274 309.363 169.917Z" fill="#2F2E41"/>
<path d="M54.5 139.568L51.0247 169.917L50.9019 171H41.5C41.6111 170.648 41.7223 170.285 41.8394 169.917C44.5073 161.45 48.1406 149.091 47.7483 145.816C47.1341 140.705 51.4344 139 51.4344 139L51.7035 139.049L54.5 139.568Z" fill="#E86C62"/>
<path d="M69 130C76.4558 130 82.5 124.404 82.5 117.5C82.5 110.596 76.4558 105 69 105C61.5442 105 55.5 110.596 55.5 117.5C55.5 124.404 61.5442 130 69 130Z" fill="#A0616A"/>
<path d="M85.4362 164.639C84.7928 165.859 84.2656 167.141 83.8621 168.466C83.7114 168.937 83.5661 169.428 83.4309 169.931C83.3322 170.278 83.2439 170.637 83.1556 171H49.5C49.5469 170.647 49.5883 170.289 49.6352 169.931C51.3549 155.952 52.7471 141.765 52.9706 139.45C52.9914 139.231 53.0018 139.119 53.0018 139.119C73.17 128.182 87.8885 142.487 87.8885 142.487C87.8885 142.487 87.9092 142.588 87.9405 142.786C88.2627 144.785 89.9042 156.46 85.4362 164.639Z" fill="#E86C62"/>
<path d="M84.6965 168.489L82.5 163.583L83.0338 144.128L88.6881 143.037L88.8865 143C91.8091 144.77 94.0707 147.519 95.3033 150.799C96.4017 153.66 98.4914 162.264 100.256 169.94C100.337 170.295 100.419 170.65 100.5 171H85.8202L85.3473 169.94L84.6965 168.489Z" fill="#E86C62"/>
<path d="M105.303 82H28.6978C27.0546 82.002 25.4794 82.6556 24.3175 83.8174C23.1556 84.9793 22.502 86.5545 22.5 88.1976V164.802C22.502 166.445 23.1556 168.021 24.3175 169.183C25.4794 170.344 27.0546 170.998 28.6978 171H105.303C106.946 170.999 108.522 170.346 109.684 169.184C110.846 168.022 111.499 166.446 111.5 164.802V88.1976C111.499 86.5543 110.846 84.9785 109.684 83.8165C108.522 82.6544 106.946 82.0011 105.303 82ZM110.421 164.802C110.42 166.16 109.88 167.461 108.921 168.421C107.961 169.38 106.66 169.92 105.303 169.921H28.6978C27.3408 169.919 26.04 169.379 25.0804 168.42C24.1209 167.46 23.5809 166.159 23.5788 164.802V88.1976C23.5809 86.8407 24.1209 85.5399 25.0804 84.5803C26.04 83.6208 27.3408 83.0808 28.6978 83.0788H105.303C106.66 83.0799 107.961 83.6196 108.921 84.5794C109.88 85.5391 110.42 86.8404 110.421 88.1976V164.802ZM51.2928 169.921L51.1795 171H83.2574C83.349 170.633 83.4407 170.272 83.5431 169.921H51.2928Z" fill="#251868"/>
<path d="M210.163 82H131.837C130.157 82.002 128.546 82.6556 127.358 83.8174C126.17 84.9793 125.502 86.5545 125.5 88.1976V164.802C125.502 166.445 126.17 168.021 127.358 169.183C128.546 170.344 130.157 170.998 131.837 171H210.163C211.844 170.999 213.455 170.346 214.643 169.184C215.831 168.022 216.499 166.446 216.5 164.802V88.1976C216.499 86.5543 215.831 84.9785 214.643 83.8165C213.455 82.6544 211.844 82.0011 210.163 82ZM215.397 164.802C215.396 166.16 214.844 167.461 213.863 168.421C212.882 169.38 211.551 169.92 210.163 169.921H131.837C130.45 169.919 129.119 169.379 128.138 168.42C127.157 167.46 126.605 166.159 126.603 164.802V88.1976C126.605 86.8407 127.157 85.5399 128.138 84.5803C129.119 83.6208 130.45 83.0808 131.837 83.0788H210.163C211.551 83.0799 212.882 83.6196 213.863 84.5794C214.844 85.5391 215.396 86.8404 215.397 88.1976V164.802ZM146.303 169.921C146.369 170.153 146.441 170.385 146.518 170.617L146.381 171H173.769C173.796 170.639 173.818 170.277 173.846 169.921H146.303Z" fill="#251868"/>
<path d="M312.302 82H235.698C234.054 82.001 232.479 82.6543 231.316 83.8164C230.154 84.9784 229.501 86.5542 229.5 88.1976V164.802C229.501 166.446 230.154 168.022 231.316 169.184C232.479 170.346 234.054 170.999 235.698 171H312.302C313.946 170.998 315.521 170.344 316.683 169.183C317.844 168.021 318.498 166.445 318.5 164.802V88.1976C318.498 86.5546 317.844 84.9793 316.683 83.8175C315.521 82.6556 313.946 82.002 312.302 82ZM317.421 164.802C317.419 166.159 316.879 167.46 315.92 168.42C314.96 169.379 313.659 169.919 312.302 169.921H235.698C234.34 169.92 233.039 169.38 232.079 168.421C231.12 167.461 230.58 166.16 230.579 164.802V88.1976C230.58 86.8404 231.12 85.539 232.079 84.5793C233.039 83.6196 234.34 83.0799 235.698 83.0788H312.302C313.659 83.0808 314.96 83.6208 315.92 84.5803C316.879 85.5399 317.419 86.8407 317.421 88.1976V164.802ZM275.931 169.921C275.904 170.277 275.877 170.639 275.85 171H299.093C299.136 170.644 299.184 170.283 299.227 169.921H275.931Z" fill="#251868"/>
<path d="M260.153 203H80.8468C79.694 203 78.5884 202.579 77.7732 201.828C76.958 201.078 76.5 200.061 76.5 199C76.5 197.939 76.958 196.922 77.7732 196.172C78.5884 195.421 79.694 195 80.8468 195H260.153C261.306 195 262.412 195.421 263.227 196.172C264.042 196.922 264.5 197.939 264.5 199C264.5 200.061 264.042 201.078 263.227 201.828C262.412 202.579 261.306 203 260.153 203Z" fill="#CCCCCC"/>
<path d="M211.078 58H130.922C129.749 58 128.625 57.5786 127.795 56.8284C126.966 56.0783 126.5 55.0609 126.5 54C126.5 52.9391 126.966 51.9217 127.795 51.1716C128.625 50.4214 129.749 50 130.922 50H211.078C212.251 50 213.375 50.4214 214.205 51.1716C215.034 51.9217 215.5 52.9391 215.5 54C215.5 55.0609 215.034 56.0783 214.205 56.8284C213.375 57.5786 212.251 58 211.078 58Z" fill="#E86C62"/>
<path d="M75.1659 127.29C75.6136 127.707 76.2056 127.957 76.8331 127.995C77.4607 128.033 78.0817 127.856 78.5821 127.497C81.6982 125.318 84.4339 122.607 86.0529 119.299C87.908 115.509 88.1149 110.858 85.8782 107.256C83.9875 104.211 80.6487 102.246 77.3211 100.632C76.029 99.9443 74.6373 99.4384 73.1901 99.1304C71.7273 98.826 70.1965 99.059 68.9095 99.7818C68.2799 100.154 67.7838 100.697 67.4861 101.339C67.1883 101.981 67.1027 102.693 67.2404 103.382C65.642 101.662 63.5948 100.366 61.3016 99.622C59.8576 99.0892 58.2764 98.9811 56.766 99.3119C54.6544 99.8768 53.1128 101.646 52.2696 103.558C51.5877 105.011 51.3523 106.617 51.59 108.19C51.7151 108.974 52.0132 109.723 52.4648 110.391C52.9165 111.059 53.5117 111.63 54.212 112.067C55.9579 113.085 58.1852 113.012 60.1902 112.596C62.1952 112.179 64.136 111.456 66.1798 111.273C68.2236 111.089 70.4996 111.57 71.7434 113.111C72.6194 114.195 72.8443 115.613 73.0409 116.964L74.0636 123.99C74.1472 125.006 74.4225 126.001 74.8764 126.926C74.9551 127.059 75.0524 127.182 75.1659 127.29Z" fill="#2F2E41"/>
</svg>
