<svg width="341" height="221" viewBox="0 0 341 221" fill="none" xmlns="http://www.w3.org/2000/svg">
<path d="M310.616 220.346L300.905 190.967C300.905 190.967 311.586 201.676 311.586 210.462L309.669 190.144C309.669 190.144 315.147 197.557 314.599 208.814C314.051 220.072 310.616 220.346 310.616 220.346Z" fill="#E6E6E6"/>
<path d="M102.079 193.596L92.6013 164.923C92.6013 164.923 103.026 175.374 103.026 183.949L101.155 164.119C101.155 164.119 106.501 171.354 105.966 182.341C105.431 193.328 102.079 193.596 102.079 193.596Z" fill="#E6E6E6"/>
<path d="M250.002 206.827C250.018 225.688 212.703 219.886 167.021 219.926C121.339 219.965 84.5879 225.831 84.5717 206.97C84.5554 188.108 121.857 183.974 167.539 183.934C213.222 183.895 249.986 187.965 250.002 206.827Z" fill="#E6E6E6"/>
<path d="M217.986 181.354H212.014L209.172 158.26H217.986V181.354Z" fill="#A0616A"/>
<path d="M207.085 179.644H219.266V186.914H200.496V186.249C200.496 184.497 201.19 182.817 202.426 181.578C203.662 180.34 205.337 179.644 207.085 179.644Z" fill="#2F2E41"/>
<path d="M261.885 215.44H255.913L253.071 192.346H261.885V215.44Z" fill="#A0616A"/>
<path d="M250.984 213.73H263.165V221H244.395V220.335C244.395 218.583 245.089 216.903 246.325 215.664C247.56 214.425 249.236 213.73 250.984 213.73Z" fill="#2F2E41"/>
<path d="M289.433 146.832C289.846 146.33 290.144 145.743 290.307 145.113C290.469 144.483 290.491 143.825 290.373 143.185C290.254 142.545 289.996 141.939 289.619 141.41C289.241 140.881 288.752 140.441 288.187 140.122L274.316 83.4735L265.447 87.2991L281.945 142.073C281.473 143.061 281.379 144.188 281.68 145.241C281.982 146.294 282.658 147.2 283.581 147.787C284.504 148.373 285.61 148.6 286.688 148.424C287.767 148.248 288.743 147.681 289.433 146.832Z" fill="#A0616A"/>
<path d="M278.615 32.3442C278.12 31.8254 277.517 31.4217 276.85 31.1616C276.182 30.9014 275.466 30.7912 274.751 30.8386C274.037 30.886 273.341 31.0899 272.714 31.4359C272.086 31.782 271.542 32.2617 271.12 32.8414L249.65 35.3125L252.916 43.6145L272.441 39.951C273.46 40.598 274.68 40.8481 275.87 40.6537C277.06 40.4594 278.137 39.8342 278.898 38.8966C279.659 37.9589 280.051 36.774 279.998 35.5664C279.946 34.3587 279.454 33.2122 278.615 32.3442Z" fill="#A0616A"/>
<path d="M243.234 140.957L252.603 211.447L264.263 209.04C264.263 209.04 262.548 157.704 268.379 151.515C274.209 145.326 260.88 134.485 260.88 134.485L243.234 140.957Z" fill="#2F2E41"/>
<path d="M247.108 121.541L242.804 128.013C242.804 128.013 209.665 114.206 209.665 136.211C209.665 158.215 207.768 173.148 207.082 174.18C206.396 175.211 215.018 177.887 219.133 177.2C219.133 177.2 224.21 141.725 223.867 139.662C223.867 139.662 256.375 155.641 262.548 154.266C268.722 152.89 270.18 148.022 271.209 145.271C272.238 142.521 270.779 120.678 270.779 120.678L250.202 114.383L247.108 121.541Z" fill="#2F2E41"/>
<path d="M247.688 82.6828L246.461 81.2071C246.461 81.2071 232.722 50.2157 238.12 41.853C243.517 33.4902 267.07 32.2604 267.806 32.7523C268.542 33.2442 266.048 39.6311 267.766 42.5827C267.766 42.5827 249.52 46.5483 248.294 47.0403C247.067 47.5322 257.747 65.7114 257.747 65.7114L256.521 76.7797L247.688 82.6828Z" fill="#CCCCCC"/>
<path d="M271.732 67.4331C271.732 67.4331 258.974 68.9089 258.483 68.9089C257.993 68.9089 257.747 65.7114 257.747 65.7114L246.462 81.207C246.462 81.207 240.901 126.162 242.373 125.424C243.846 124.686 270.996 128.924 271.241 126.956C271.487 124.988 270.996 115.15 271.732 114.658C272.468 114.166 284.49 83.6667 284.49 83.6667C284.49 83.6667 283.263 77.2716 279.092 75.058C274.921 72.8443 271.732 67.4331 271.732 67.4331Z" fill="#CCCCCC"/>
<path d="M280.564 79.4853L284.49 83.6667C284.49 83.6667 290.322 131.715 287.133 133.19C283.943 134.666 277.664 134.485 277.664 134.485L271.487 111.706L280.564 79.4853Z" fill="#CCCCCC"/>
<path d="M259.472 64.3903C265.709 64.3903 270.765 59.3217 270.765 53.0692C270.765 46.8167 265.709 41.7481 259.472 41.7481C253.235 41.7481 248.18 46.8167 248.18 53.0692C248.18 59.3217 253.235 64.3903 259.472 64.3903Z" fill="#A0616A"/>
<path d="M256.822 54.8357C256.67 52.4866 253.714 52.4062 251.366 52.3839C249.018 52.3617 246.21 52.4457 244.882 50.5047C244.004 49.222 244.172 47.4412 244.897 46.0659C245.622 44.6906 246.815 43.6328 247.989 42.6153C251.02 39.9881 254.143 37.3819 257.781 35.7003C261.42 34.0188 265.683 33.3394 269.457 34.6892C274.092 36.3474 280.358 44.8829 280.899 49.7869C281.44 54.6909 279.485 59.6901 276.19 63.3547C272.894 67.0193 265.352 65.5407 260.605 66.8444C263.491 62.75 261.589 55.3102 256.966 53.3982L256.822 54.8357Z" fill="#2F2E41"/>
<path d="M156.178 201.276C171.15 201.276 183.287 189.108 183.287 174.098C183.287 159.088 171.15 146.921 156.178 146.921C141.206 146.921 129.068 159.088 129.068 174.098C129.068 189.108 141.206 201.276 156.178 201.276Z" fill="#E86C62"/>
<path d="M138.074 144.989C134.316 144.99 130.64 143.898 127.488 141.847C124.337 139.796 121.847 136.873 120.318 133.432L77.3007 36.3128C75.8757 33.0957 75.122 29.6205 75.0861 26.1006C75.0501 22.5808 75.7325 19.0908 77.0914 15.8451C78.4503 12.5994 80.457 9.66666 82.9881 7.22705C85.5192 4.78744 88.5212 2.89255 91.8096 1.65884C95.098 0.425134 98.6034 -0.12132 102.11 0.0530722C105.617 0.227464 109.051 1.11902 112.202 2.67293C115.352 4.22684 118.153 6.41028 120.43 9.08903C122.708 11.7678 124.415 14.8853 125.447 18.2498L156.597 119.822C157.489 122.729 157.688 125.806 157.179 128.804C156.669 131.803 155.466 134.64 153.664 137.087C151.863 139.535 149.514 141.525 146.806 142.897C144.099 144.27 141.108 144.986 138.074 144.989Z" fill="#E86C62"/>
</svg>
