<svg width="70" height="71" viewBox="0 0 70 71" fill="none" xmlns="http://www.w3.org/2000/svg">
<path d="M35 70.5C54.33 70.5 70 54.83 70 35.5C70 16.17 54.33 0.5 35 0.5C15.67 0.5 0 16.17 0 35.5C0 54.83 15.67 70.5 35 70.5Z" fill="#E86C62"/>
<path d="M70.0001 35.5C70.0001 34.517 69.9595 33.5433 69.8801 32.5808L47.1857 9.88641L13.4534 54.6468L28.7501 69.9435C30.7781 70.3091 32.8667 70.5 35.0001 70.5C54.3301 70.5 70.0001 54.83 70.0001 35.5Z" fill="#C56158"/>
<path d="M22.3386 9.88641L18.5455 15.1761L13.4534 18.7716V54.6468H47.1857V9.88641H22.3386Z" fill="white"/>
<path d="M29.9692 9.88641H47.1857V54.6468H29.9692V9.88641Z" fill="#E9EDF5"/>
<path d="M22.3387 18.7716V9.88641L13.4536 18.7716H22.3387Z" fill="#636978"/>
<path d="M21.7538 28.1969L20.6351 25.9595H19.7561V28.1969H18.0381V21.5346H21.3742C22.8525 21.5346 23.6915 22.5135 23.6915 23.752C23.6915 24.9107 22.9824 25.5299 22.363 25.7498L23.7215 28.1969H21.7538ZM21.9436 23.7421C21.9436 23.2925 21.5641 23.0329 21.1145 23.0329H19.7561V24.4613H21.1145C21.5641 24.4613 21.9436 24.2116 21.9436 23.7421Z" fill="#636978"/>
<path d="M24.6409 28.1969V21.5346H29.5253V23.0329H26.3589V24.0717H29.4553V25.57H26.3589V26.6987H29.5253V28.197H24.6409V28.1969Z" fill="#636978"/>
<path d="M35.0591 28.1969L32.2424 24.3413V28.1969H30.5244V21.5346H32.2923L34.9892 25.2004V21.5346H36.7172V28.1969H35.0591Z" fill="#414952"/>
<path d="M39.4045 28.1969V23.0329H37.5366V21.5346H42.9803V23.0329H41.1225V28.1969H39.4045Z" fill="#414952"/>
<path d="M17.6628 40.252H42.9762V44.3535H17.6628V40.252Z" fill="#CDD2E1"/>
<path d="M29.9692 40.252H42.9761V44.3535H29.9692V40.252Z" fill="#AFB4C8"/>
<path d="M17.6628 33.3788H42.9762V37.4803H17.6628V33.3788Z" fill="#CDD2E1"/>
<path d="M29.9692 33.3788H42.9761V37.4803H29.9692V33.3788Z" fill="#AFB4C8"/>
<path d="M56.2164 29.9484H44.5037C43.6415 32.1905 41.4688 33.7824 38.9231 33.7824V44.5894C38.9231 48.3111 40.7233 51.8031 43.7549 53.9618L50.3602 58.6657L56.9655 53.9618C59.9968 51.8031 61.797 48.3111 61.797 44.5894V33.7824C59.2513 33.7824 57.0785 32.1906 56.2164 29.9484Z" fill="#1DD882"/>
<path d="M56.2162 29.9484H50.3599V58.6651V58.6657L56.9652 53.9618C59.9966 51.8031 61.7968 48.3111 61.7968 44.5894V33.7824C59.2511 33.7824 57.0784 32.1905 56.2162 29.9484Z" fill="#12C66C"/>
<path d="M50.3599 61.1833L42.565 55.6323C39.0002 53.0939 36.8721 48.9657 36.8721 44.5893V31.7316H38.9229C40.5364 31.7316 42.01 30.7192 42.5894 29.2125L43.095 27.8978H57.6249L58.1305 29.2125C58.7099 30.7192 60.1833 31.7316 61.7969 31.7316H63.8476V44.5893C63.8476 48.9656 61.7195 53.0938 58.1547 55.6324L50.3599 61.1833ZM40.9736 35.5626V44.5893C40.9736 47.6416 42.458 50.5209 44.9442 52.2913L50.3599 56.148L55.7755 52.2914C58.2617 50.5209 59.7461 47.6417 59.7461 44.5893V35.5626C57.7661 35.0324 56.0358 33.7533 54.9537 31.9992H45.7662C44.6839 33.7533 42.9536 35.0324 40.9736 35.5626Z" fill="#12C66C"/>
<path d="M50.3599 61.1833L58.1546 55.6324C61.7194 53.0939 63.8476 48.9657 63.8476 44.5895V31.7318H61.7968C60.1832 31.7318 58.7098 30.7194 58.1304 29.2125L57.6248 27.8978H50.3599V31.9993H54.9536C56.0357 33.7534 57.7661 35.0324 59.746 35.5628V44.5895C59.746 47.6417 58.2617 50.521 55.7754 52.2914L50.3599 56.148V61.1833Z" fill="#06B26B"/>
<path d="M48.8587 49.1777L43.3459 43.665L46.2462 40.7648L48.8587 43.3772L55.6808 36.5551L58.5811 39.4554L48.8587 49.1777Z" fill="white"/>
<path d="M50.3599 41.8761V47.6766L58.581 39.4554L55.6808 36.5552L50.3599 41.8761Z" fill="#E9EDF5"/>
</svg>
