<svg width="70" height="71" viewBox="0 0 70 71" fill="none" xmlns="http://www.w3.org/2000/svg">
<g clip-path="url(#clip0_116_5116)">
<path d="M35 70.5C54.33 70.5 70 54.83 70 35.5C70 16.17 54.33 0.5 35 0.5C15.67 0.5 0 16.17 0 35.5C0 54.83 15.67 70.5 35 70.5Z" fill="#E86C62"/>
<path d="M70.0001 35.5C70.0001 33.8669 69.8882 32.2601 69.6718 30.6864L50.4095 11.4243L14.1215 59.5758L22.8963 68.3507C26.6683 69.7408 30.7455 70.5 35.0001 70.5C54.33 70.5 70.0001 54.83 70.0001 35.5Z" fill="#C56158"/>
<path d="M23.6799 11.4243L19.9507 17.2154L14.1215 20.9825V59.5758H50.4095V11.4243H23.6799Z" fill="white"/>
<path d="M33.5244 11.4243H50.4096V59.5758H33.5244V11.4243Z" fill="#E9EDF5"/>
<path d="M23.6799 20.9825V11.4243L14.1216 20.9825H23.6799Z" fill="#636978"/>
<path d="M18.6499 44.2458H45.881V48.3474H18.6499V44.2458Z" fill="#CDD2E1"/>
<path d="M18.6499 36.8517H45.881V40.9533H18.6499V36.8517Z" fill="#CDD2E1"/>
<path d="M18.6499 29.4578H45.881V33.5594H18.6499V29.4578Z" fill="#CDD2E1"/>
<path d="M27.9792 44.4566H33.5244V53.2475H27.9792V44.4566Z" fill="#636978"/>
<path d="M53.7466 44.4566H59.2918V53.2475H53.7466V44.4566Z" fill="#414952"/>
<path d="M58.9885 39.0525H28.2825L33.6306 28.4081H53.6404L58.9885 39.0525Z" fill="#7584F2"/>
<path d="M53.6402 28.4081H43.5793V39.0525H58.9884L53.6402 28.4081Z" fill="#606AEA"/>
<path d="M55.2453 39.0525H32.0254L36.0697 30.9206H51.201L55.2453 39.0525Z" fill="white"/>
<path d="M51.201 30.9206H43.5793V39.0525H55.2453L51.201 30.9206Z" fill="#E9EDF5"/>
<path d="M61.7969 48.5H25.4739V42.3059C25.4739 39.6543 27.6234 37.5047 30.275 37.5047H56.9959C59.6474 37.5047 61.797 39.6542 61.797 42.3059L61.7969 48.5Z" fill="#7584F2"/>
<path d="M61.7968 42.3059C61.7968 39.6542 59.6474 37.5047 56.9957 37.5047H43.5793V48.4999H61.7968V42.3059Z" fill="#606AEA"/>
<path d="M27.9792 41.6727H35.4136V44.4566H27.9792V41.6727Z" fill="white"/>
<path d="M51.8572 41.6727H59.2915V44.4566H51.8572V41.6727Z" fill="#E9EDF5"/>
</g>
<defs>
<clipPath id="clip0_116_5116">
<rect width="70" height="70" fill="white" transform="translate(0 0.5)"/>
</clipPath>
</defs>
</svg>
