<svg width="70" height="71" viewBox="0 0 70 71" fill="none" xmlns="http://www.w3.org/2000/svg">
<g clip-path="url(#clip0_136_2824)">
<path d="M1.60207 45.9993C0.561094 42.6848 0 39.1579 0 35.5C0 16.17 15.67 0.5 35 0.5C54.33 0.5 70 16.17 70 35.5C70 54.83 54.33 70.5 35 70.5C24.4114 70.5 14.9209 65.798 8.50281 58.368L1.60207 45.9993Z" fill="#E86C62"/>
<path d="M8.50293 58.3677L12.1323 61.9971C18.266 67.2955 26.2587 70.5 35.0001 70.5C52.6222 70.5 67.2026 57.4766 69.6414 40.5295L49.6555 20.5437L32.75 14.0676L22.7827 23.6513L31.1188 31.9874L23.907 36.3203L30.638 43.0513L8.50293 58.3677Z" fill="#C56158"/>
<path d="M51.4998 45.1812L38.832 53.0991L29.8977 48.1465L39.8108 45.4844C41.104 44.8398 41.7598 43.3691 41.3753 41.9758C40.9723 40.5157 39.5509 39.5797 38.0508 39.7868L25.3588 40.1494C23.6569 40.1981 21.9663 40.4418 20.3199 40.8759L1.60254 46.0004C3.04916 50.6059 5.42191 54.8011 8.50287 58.3677C12.9754 55.9222 16.9768 53.6964 16.9768 53.6964L33.4349 59.9104C36.3388 60.9965 39.5905 60.5899 42.1376 58.8222L57.51 47.855L56.573 46.3012C55.4957 44.5706 53.2055 44.065 51.4998 45.1812Z" fill="#FFDECF"/>
<path d="M39.8108 45.4844C41.104 44.8398 41.7599 43.3691 41.3753 41.9758C40.9724 40.5157 39.5509 39.5797 38.0508 39.7868L34.998 39.874V46.7768L39.8108 45.4844Z" fill="#FFCDBE"/>
<path d="M56.5731 46.3013C55.4959 44.5706 53.2058 44.065 51.5 45.1812L38.8322 53.0991L34.9983 50.9738V60.3456C37.464 60.8098 40.0398 60.2782 42.1376 58.8223L57.51 47.8551L56.5731 46.3013Z" fill="#FFCDBE"/>
<path d="M46.0928 36.3203H38.9746L35.0901 35.277L31.025 36.3203H23.9067V19.6774L34.9998 11.5562L46.0928 19.6774V36.3203Z" fill="white"/>
<path d="M35 11.5562V11.5575V35.3006L35.0902 35.277L38.9748 36.3203H46.0931V19.6774L35 11.5562Z" fill="#E9EDF5"/>
<path d="M47.2174 23.6513L34.9999 14.0663L22.7825 23.6513L20.3445 20.5437L34.9999 9.04602L49.6553 20.5437L47.2174 23.6513Z" fill="#636978"/>
<path d="M35 14.0663L47.2175 23.6513L49.6554 20.5437L35 9.04602V14.0663Z" fill="#414952"/>
<path d="M31.0251 26.3117H38.9748V36.3203H31.0251V26.3117Z" fill="#636978"/>
<path d="M35 26.3117H38.9748V36.3203H35V26.3117Z" fill="#414952"/>
</g>
<defs>
<clipPath id="clip0_136_2824">
<rect width="70" height="70" fill="white" transform="translate(0 0.5)"/>
</clipPath>
</defs>
</svg>
