<svg width="70" height="71" viewBox="0 0 70 71" fill="none" xmlns="http://www.w3.org/2000/svg">
<g clip-path="url(#clip0_116_5659)">
<path d="M1.60248 46.0004C0.56123 42.6857 0 39.1585 0 35.5C0 16.17 15.67 0.5 35 0.5C54.33 0.5 70 16.17 70 35.5C70 54.83 54.33 70.5 35 70.5C24.4114 70.5 14.9209 65.798 8.50295 58.368L1.60248 46.0004Z" fill="#E86C62"/>
<path d="M8.50293 58.3679L12.1321 61.9971C18.2659 67.2955 26.2587 70.5 35.0001 70.5C54.3301 70.5 70.0001 54.83 70.0001 35.5C70.0001 35.2999 69.9983 35.1001 69.9951 34.9008L46.636 11.5417L13.878 34.909L18.385 39.4159L16.7916 40.4302L21.9854 45.624L8.50293 58.3679Z" fill="#C56158"/>
<path d="M16.7915 30.2064H23.2405V40.4304H16.7915V30.2064Z" fill="#636978"/>
<path d="M46.7593 30.2064H53.2083V40.4304H46.7593V30.2064Z" fill="#414952"/>
<path d="M52.8558 23.9214H17.144L23.3641 11.5417H46.6358L52.8558 23.9214Z" fill="#7584F2"/>
<path d="M46.6358 11.5417H35.0491V23.9214H52.8559L46.6358 11.5417Z" fill="#606AEA"/>
<path d="M48.5025 23.9215H21.4973L26.2008 14.4638H43.7989L48.5025 23.9215Z" fill="white"/>
<path d="M43.7989 14.4638H35.0491V23.9215H48.5025L43.7989 14.4638Z" fill="#E9EDF5"/>
<path d="M56.1221 34.909H13.8779V27.7051C13.8779 24.6213 16.3778 22.1214 19.4617 22.1214H50.5384C53.6222 22.1214 56.1221 24.6213 56.1221 27.7051V34.909Z" fill="#7584F2"/>
<path d="M56.1221 27.7051C56.1221 24.6213 53.6222 22.1214 50.5383 22.1214H35.0491V34.9091H56.1221V27.7051Z" fill="#606AEA"/>
<path d="M16.7915 26.9686H25.4379V30.2064H16.7915V26.9686Z" fill="white"/>
<path d="M44.562 26.9686H53.2084V30.2064H44.562V26.9686Z" fill="#E9EDF5"/>
<path d="M51.4998 45.1812L38.832 53.0991L29.8977 48.1465L39.8108 45.4844C41.104 44.8398 41.7598 43.3691 41.3753 41.9758C40.9723 40.5157 39.5509 39.5797 38.0508 39.7868L25.3588 40.1494C23.6569 40.1981 21.9663 40.4418 20.3199 40.8759L1.60254 46.0004C3.04916 50.6059 5.42191 54.8011 8.50287 58.3677C12.9754 55.9222 16.9768 53.6964 16.9768 53.6964L33.4349 59.9104C36.3387 60.9965 39.5905 60.5899 42.1376 58.8222L57.51 47.855L56.573 46.3012C55.4957 44.5706 53.2055 44.065 51.4998 45.1812Z" fill="#FFDECF"/>
<path d="M39.8106 45.4844C41.1038 44.8398 41.7597 43.3691 41.3751 41.9758C40.9722 40.5156 39.5507 39.5797 38.0506 39.7866L35.0488 39.8724V46.7629L39.8106 45.4844Z" fill="#FFCDBE"/>
<path d="M56.5728 46.3013C55.4956 44.5706 53.2056 44.065 51.4998 45.1811L38.8319 53.0991L35.0491 51.0021V60.3554C37.4993 60.8028 40.0541 60.2681 42.1374 58.8223L57.5098 47.8551L56.5728 46.3013Z" fill="#FFCDBE"/>
</g>
<defs>
<clipPath id="clip0_116_5659">
<rect width="70" height="70" fill="white" transform="translate(0 0.5)"/>
</clipPath>
</defs>
</svg>
