<svg width="70" height="71" viewBox="0 0 70 71" fill="none" xmlns="http://www.w3.org/2000/svg">
<g clip-path="url(#clip0_116_5383)">
<path d="M35 70.5C54.33 70.5 70 54.83 70 35.5C70 16.17 54.33 0.5 35 0.5C15.67 0.5 0 16.17 0 35.5C0 54.83 15.67 70.5 35 70.5Z" fill="#E86C62"/>
<path d="M70.0001 35.5C70.0001 31.4677 69.3181 27.5948 68.0635 23.9901L58.9589 14.8773L58.7711 14.6976L57.872 16.1007L53.2556 11.4843L17.0083 60.8759L25.2589 69.1265C28.3512 70.0207 31.6196 70.5 35.0001 70.5C54.3301 70.5 70.0001 54.83 70.0001 35.5Z" fill="#C56158"/>
<path d="M26.5558 11.4844L23.3456 16.2582L17.0083 21.0319V60.8759H53.2556V11.4844H26.5558Z" fill="white"/>
<path d="M34.9514 11.4844H53.2555V60.8759H34.9514V11.4844Z" fill="#E9EDF5"/>
<path d="M26.5559 21.0319L26.5558 11.4844L17.0083 21.0319H26.5559Z" fill="#636978"/>
<path d="M30.302 28.7183H49.2298V32.6205H30.302V28.7183Z" fill="#CDD2E1"/>
<path d="M34.9514 28.7183H49.2298V32.6205H34.9514V28.7183Z" fill="#AFB4C8"/>
<path d="M50.3451 18.884H30.302V22.9856H32.8869V26.6674H36.9885V22.9856H50.3451V18.884Z" fill="#FFCE07"/>
<path d="M55.2846 13.3457H55.1336C52.2767 13.3457 49.9525 15.6699 49.9525 18.5268V18.884H34.9514V26.6674H36.9885V22.9856H49.9525V23.3429C49.9525 26.1997 52.2767 28.5238 55.1336 28.5238H55.2846C58.1415 28.5238 60.4657 26.1996 60.4657 23.3429V18.5267C60.4657 15.6699 58.1415 13.3457 55.2846 13.3457ZM56.3642 23.3429C56.3642 23.9381 55.8799 24.4222 55.2846 24.4222H55.1336C54.5383 24.4222 54.054 23.938 54.054 23.3429V18.5267C54.054 17.9314 54.5383 17.4471 55.1336 17.4471H55.2846C55.8799 17.4471 56.3642 17.9314 56.3642 18.5267V23.3429Z" fill="#FDBA12"/>
<path d="M20.0322 25.4166H27.2362V32.6205H20.0322V25.4166Z" fill="#CDD2E1"/>
<path d="M30.302 39.4819H49.2298V43.3842H30.302V39.4819Z" fill="#CDD2E1"/>
<path d="M34.9514 39.4819H49.2298V43.3842H34.9514V39.4819Z" fill="#AFB4C8"/>
<path d="M20.0322 36.1802H27.2362V43.3842H20.0322V36.1802Z" fill="#CDD2E1"/>
<path d="M30.302 50.2457H49.2298V54.1479H30.302V50.2457Z" fill="#CDD2E1"/>
<path d="M34.9514 50.2457H49.2298V54.1479H34.9514V50.2457Z" fill="#AFB4C8"/>
<path d="M20.0322 46.9438H27.2362V54.1478H20.0322V46.9438Z" fill="#CDD2E1"/>
<path d="M22.4303 33.5697L17.8972 29.0368L20.7974 26.1365L22.4303 27.7692L27.146 23.0535L30.0462 25.9537L22.4303 33.5697Z" fill="#E86C62"/>
<path d="M22.4303 54.3837L17.8972 49.8505L20.7974 46.9503L22.4303 48.5831L27.146 43.8674L30.0462 46.7676L22.4303 54.3837Z" fill="#E86C62"/>
</g>
<defs>
<clipPath id="clip0_116_5383">
<rect width="70" height="70" fill="white" transform="translate(0 0.5)"/>
</clipPath>
</defs>
</svg>
