<svg width="70" height="71" viewBox="0 0 70 71" fill="none" xmlns="http://www.w3.org/2000/svg">
<g clip-path="url(#clip0_116_5596)">
<path d="M35 70.5C54.33 70.5 70 54.83 70 35.5C70 16.17 54.33 0.5 35 0.5C15.67 0.5 0 16.17 0 35.5C0 54.83 15.67 70.5 35 70.5Z" fill="#E86C62"/>
<path d="M69.9391 37.5833L60.3901 28.0343L59.0427 29.62L37.9439 8.52032L17.8432 32.1423L8.94434 51.5524L26.9652 69.5733C29.5453 70.1794 32.2352 70.5 35.0001 70.5C53.6306 70.5 68.8612 55.9434 69.9391 37.5833Z" fill="#C56158"/>
<path d="M53.7678 34.7381L35 14.1525L16.2322 34.7381L13.2013 31.9747L35 8.06451L56.7987 31.9747L53.7678 34.7381Z" fill="#FFCE00"/>
<path d="M35.0001 8.06451L34.9514 8.11797V14.2058L35.0001 14.1525L53.7679 34.7381L56.7988 31.9747L35.0001 8.06451Z" fill="#FDBA12"/>
<path d="M35 15.0282C37.1649 15.0282 38.9198 13.2733 38.9198 11.1084C38.9198 8.94364 37.1649 7.18872 35 7.18872C32.8352 7.18872 31.0803 8.94364 31.0803 11.1084C31.0803 13.2733 32.8352 15.0282 35 15.0282Z" fill="white"/>
<path d="M35.0001 7.18884C34.9838 7.18884 34.9677 7.18994 34.9514 7.19007V15.0269C34.9677 15.0271 34.9838 15.0282 35.0001 15.0282C37.1649 15.0282 38.9198 13.2732 38.9198 11.1084C38.9198 8.94363 37.1649 7.18884 35.0001 7.18884Z" fill="#E9EDF5"/>
<path d="M9.29688 27.707H60.7426V51.2251H9.29688V27.707Z" fill="white"/>
<path d="M35 27.707H60.7031V51.2227H35V27.707Z" fill="#E9EDF5"/>
<path d="M42.7032 42.3479C42.7032 42.0333 42.6004 41.758 42.3949 41.5221C42.2008 41.2749 41.9439 41.0671 41.6242 40.8985C41.3045 40.7188 40.9506 40.5502 40.5624 40.3929C40.1856 40.2244 39.8031 40.039 39.4149 39.8368C39.0267 39.6233 38.6727 39.393 38.353 39.1458C38.0333 38.8874 37.7707 38.5559 37.5652 38.1515C37.3711 37.7358 37.274 37.2695 37.274 36.7527C37.274 35.8314 37.6109 35.0617 38.2845 34.4438C38.9696 33.8146 39.8773 33.5 41.0077 33.5C42.5148 33.5 43.6566 33.9213 44.433 34.764L43.3026 36.3145C42.6861 35.7302 41.9782 35.4381 41.1789 35.4381C40.6651 35.4381 40.2541 35.5561 39.9458 35.792C39.6489 36.028 39.5005 36.3426 39.5005 36.7358C39.5005 37.1178 39.6318 37.4493 39.8944 37.7301C40.1684 38.011 40.5053 38.2357 40.9049 38.4043C41.3045 38.5616 41.7384 38.7526 42.2065 38.9773C42.6861 39.202 43.1257 39.4379 43.5253 39.6851C43.9249 39.921 44.256 40.2693 44.5186 40.73C44.7927 41.1794 44.9297 41.7131 44.9297 42.331C44.9297 43.3085 44.5472 44.1119 43.7822 44.741C43.0172 45.359 42.0638 45.668 40.922 45.668C40.0999 45.668 39.3064 45.5051 38.5414 45.1792C37.7878 44.8422 37.274 44.3871 37 43.8141L38.1989 42.3985C38.53 42.8254 38.9467 43.1568 39.4491 43.3928C39.9629 43.6175 40.4653 43.7299 40.9563 43.7299C41.4701 43.7299 41.8868 43.6119 42.2065 43.3759C42.5377 43.1288 42.7032 42.7861 42.7032 42.3479Z" fill="#636978"/>
<path d="M46.4961 45.5312L51.5258 33.6367H53.3609L58.3906 45.5312H56.1646L54.9242 42.4983H49.8436L48.6031 45.5312H46.4961ZM52.3924 36.3308L50.6422 40.5498H54.1256L52.3924 36.3308Z" fill="#636978"/>
<path d="M25.0195 33.3125L20.1547 45.4805H18.5389L13.5352 33.3125H15.8112L19.425 42.3085L22.8825 33.3125H25.0195Z" fill="#636978"/>
<path d="M28.5742 45.4805V33.3125H30.7617V45.4805H28.5742Z" fill="#636978"/>
</g>
<defs>
<clipPath id="clip0_116_5596">
<rect width="70" height="70" fill="white" transform="translate(0 0.5)"/>
</clipPath>
</defs>
</svg>
